<svg width="28" height="28" viewBox="0 0 28 28" fill="none" xmlns="http://www.w3.org/2000/svg">
  <g clip-path="url(#clip0_3380_2493)">
    <path fill-rule="evenodd" clip-rule="evenodd" d="M0.571289 14.0356C0.571289 6.46139 6.71139 0.321289 14.2856 0.321289C21.8598 0.321289 27.9999 6.46139 27.9999 14.0356C27.9999 21.6098 21.8598 27.7499 14.2856 27.7499C6.71139 27.7499 0.571289 21.6098 0.571289 14.0356Z" fill="#6429CD"/>
    <path fill-rule="evenodd" clip-rule="evenodd" d="M14.2859 8.093C11.0037 8.093 8.343 10.7537 8.343 14.0359C8.343 17.318 11.0037 19.9787 14.2859 19.9787C17.568 19.9787 20.2287 17.318 20.2287 14.0359C20.2287 10.7537 17.568 8.093 14.2859 8.093ZM7.42871 14.0359C7.42871 10.2488 10.4988 7.17871 14.2859 7.17871C18.0729 7.17871 21.143 10.2488 21.143 14.0359C21.143 17.8229 18.0729 20.893 14.2859 20.893C10.4988 20.893 7.42871 17.8229 7.42871 14.0359Z" fill="white"/>
    <path fill-rule="evenodd" clip-rule="evenodd" d="M14.2859 9.73853C14.5383 9.73853 14.743 9.9432 14.743 10.1957V13.7531L17.0503 14.9068C17.2761 15.0197 17.3676 15.2943 17.2547 15.5201C17.1418 15.7459 16.8672 15.8375 16.6414 15.7246L14.0814 14.4446C13.9265 14.3671 13.8287 14.2088 13.8287 14.0357V10.1957C13.8287 9.9432 14.0334 9.73853 14.2859 9.73853Z" fill="white"/>
  </g>

  <defs>
    <clipPath id="clip0_3380_2493">
      <rect width="27.4286" height="27.4286" fill="white" transform="translate(0.571289 0.321289)"/>
    </clipPath>
  </defs>
</svg>
